name rise45.9887peak57.8056fall74.9286.mot
datacolumns 19
datarows 24
range 12.70162200000000 12.73994900000000
endheader
time	ground_force1_vx	ground_force1_vy	ground_force1_vz	ground_force1_px	ground_force1_py	ground_force1_pz	ground_force2_vx	ground_force2_vy	ground_force2_vz	ground_force2_px	ground_force2_py	ground_force2_pz	ground_torque1_x	ground_torque1_y	ground_torque1_z	ground_torque2_x	ground_torque2_y	ground_torque2_z	
12.70162200000000	63.25710700000000	769.75904100000002	54.41688600000000	0.36336500000000	0.00000000000000	0.11258000000000	0.00000000000000	0.00000000000000	0.00000000000000	0.00000000000000	0.00000000000000	0.00000000000000	0.00000000000000	24.68746400000000	0.00000000000000	0.00000000000000	0.00000000000000	0.00000000000000	
12.70328600000000	62.83601200000000	773.29509599999994	54.57719800000000	0.36253000000000	0.00000000000000	0.11264600000000	0.00000000000000	0.00000000000000	0.00000000000000	0.00000000000000	0.00000000000000	0.00000000000000	0.00000000000000	24.77797700000000	0.00000000000000	0.00000000000000	0.00000000000000	0.00000000000000	
12.70495000000000	62.41102800000000	776.70138099999997	54.73827000000000	0.36173300000000	0.00000000000000	0.11271400000000	0.00000000000000	0.00000000000000	0.00000000000000	0.00000000000000	0.00000000000000	0.00000000000000	0.00000000000000	24.87278300000000	0.00000000000000	0.00000000000000	0.00000000000000	0.00000000000000	
12.70662300000000	61.98235300000000	779.97410000000002	54.89965000000000	0.36097200000000	0.00000000000000	0.11278100000000	0.00000000000000	0.00000000000000	0.00000000000000	0.00000000000000	0.00000000000000	0.00000000000000	0.00000000000000	24.97153900000000	0.00000000000000	0.00000000000000	0.00000000000000	0.00000000000000	
12.70828600000000	61.55014100000000	783.10962099999995	55.06082200000000	0.36024800000000	0.00000000000000	0.11285000000000	0.00000000000000	0.00000000000000	0.00000000000000	0.00000000000000	0.00000000000000	0.00000000000000	0.00000000000000	25.07385500000000	0.00000000000000	0.00000000000000	0.00000000000000	0.00000000000000	
12.70996000000000	61.11451200000000	786.10449300000005	55.22121400000000	0.35955900000000	0.00000000000000	0.11291900000000	0.00000000000000	0.00000000000000	0.00000000000000	0.00000000000000	0.00000000000000	0.00000000000000	0.00000000000000	25.17929600000000	0.00000000000000	0.00000000000000	0.00000000000000	0.00000000000000	
12.71162200000000	60.67554900000000	788.95546800000000	55.38020100000000	0.35890400000000	0.00000000000000	0.11298900000000	0.00000000000000	0.00000000000000	0.00000000000000	0.00000000000000	0.00000000000000	0.00000000000000	0.00000000000000	25.28738200000000	0.00000000000000	0.00000000000000	0.00000000000000	0.00000000000000	
12.71328500000000	60.23330500000000	791.65951299999995	55.53711300000000	0.35828000000000	0.00000000000000	0.11306000000000	0.00000000000000	0.00000000000000	0.00000000000000	0.00000000000000	0.00000000000000	0.00000000000000	0.00000000000000	25.39760100000000	0.00000000000000	0.00000000000000	0.00000000000000	0.00000000000000	
12.71495000000000	59.78780600000000	794.21383000000003	55.69124300000000	0.35768700000000	0.00000000000000	0.11313100000000	0.00000000000000	0.00000000000000	0.00000000000000	0.00000000000000	0.00000000000000	0.00000000000000	0.00000000000000	25.50940500000000	0.00000000000000	0.00000000000000	0.00000000000000	0.00000000000000	
12.71661900000000	59.33905100000000	796.61586699999998	55.84185300000000	0.35712400000000	0.00000000000000	0.11320300000000	0.00000000000000	0.00000000000000	0.00000000000000	0.00000000000000	0.00000000000000	0.00000000000000	0.00000000000000	25.62222100000000	0.00000000000000	0.00000000000000	0.00000000000000	0.00000000000000	
12.71829100000000	58.88702100000000	798.86333600000000	55.98817900000000	0.35658700000000	0.00000000000000	0.11327500000000	0.00000000000000	0.00000000000000	0.00000000000000	0.00000000000000	0.00000000000000	0.00000000000000	0.00000000000000	25.73545200000000	0.00000000000000	0.00000000000000	0.00000000000000	0.00000000000000	
12.71995500000000	58.43167600000000	800.95422299999996	56.12944300000000	0.35607600000000	0.00000000000000	0.11334800000000	0.00000000000000	0.00000000000000	0.00000000000000	0.00000000000000	0.00000000000000	0.00000000000000	0.00000000000000	25.84848300000000	0.00000000000000	0.00000000000000	0.00000000000000	0.00000000000000	
12.72163000000000	57.97296200000000	802.88679999999999	56.26485400000000	0.35558900000000	0.00000000000000	0.11342100000000	0.00000000000000	0.00000000000000	0.00000000000000	0.00000000000000	0.00000000000000	0.00000000000000	0.00000000000000	25.96068400000000	0.00000000000000	0.00000000000000	0.00000000000000	0.00000000000000	
12.72328500000000	57.51081200000000	804.65963399999998	56.39362000000000	0.35512300000000	0.00000000000000	0.11349400000000	0.00000000000000	0.00000000000000	0.00000000000000	0.00000000000000	0.00000000000000	0.00000000000000	0.00000000000000	26.07141800000000	0.00000000000000	0.00000000000000	0.00000000000000	0.00000000000000	
12.72495700000000	57.04515400000000	806.27159600000005	56.51495200000000	0.35467700000000	0.00000000000000	0.11356800000000	0.00000000000000	0.00000000000000	0.00000000000000	0.00000000000000	0.00000000000000	0.00000000000000	0.00000000000000	26.18004400000000	0.00000000000000	0.00000000000000	0.00000000000000	0.00000000000000	
12.72662500000000	56.57590600000000	807.72186999999997	56.62807200000000	0.35424800000000	0.00000000000000	0.11364300000000	0.00000000000000	0.00000000000000	0.00000000000000	0.00000000000000	0.00000000000000	0.00000000000000	0.00000000000000	26.28591900000000	0.00000000000000	0.00000000000000	0.00000000000000	0.00000000000000	
12.72829100000000	56.10298600000000	809.00995399999999	56.73221800000000	0.35383500000000	0.00000000000000	0.11371800000000	0.00000000000000	0.00000000000000	0.00000000000000	0.00000000000000	0.00000000000000	0.00000000000000	0.00000000000000	26.38840700000000	0.00000000000000	0.00000000000000	0.00000000000000	0.00000000000000	
12.72995600000000	55.62631100000000	810.13567000000000	56.82665200000000	0.35343500000000	0.00000000000000	0.11379300000000	0.00000000000000	0.00000000000000	0.00000000000000	0.00000000000000	0.00000000000000	0.00000000000000	0.00000000000000	26.48687900000000	0.00000000000000	0.00000000000000	0.00000000000000	0.00000000000000	
12.73162200000000	55.14580100000000	811.09916399999997	56.91066400000000	0.35304500000000	0.00000000000000	0.11386900000000	0.00000000000000	0.00000000000000	0.00000000000000	0.00000000000000	0.00000000000000	0.00000000000000	0.00000000000000	26.58072000000000	0.00000000000000	0.00000000000000	0.00000000000000	0.00000000000000	
12.73328900000000	54.66138200000000	811.90090799999996	56.98357800000000	0.35266500000000	0.00000000000000	0.11394500000000	0.00000000000000	0.00000000000000	0.00000000000000	0.00000000000000	0.00000000000000	0.00000000000000	0.00000000000000	26.66933400000000	0.00000000000000	0.00000000000000	0.00000000000000	0.00000000000000	
12.73495300000000	54.17298700000000	812.54169999999999	57.04475800000000	0.35229100000000	0.00000000000000	0.11402200000000	0.00000000000000	0.00000000000000	0.00000000000000	0.00000000000000	0.00000000000000	0.00000000000000	0.00000000000000	26.75214300000000	0.00000000000000	0.00000000000000	0.00000000000000	0.00000000000000	
12.73662400000000	53.68055800000000	813.02266399999996	57.09361100000000	0.35192100000000	0.00000000000000	0.11410000000000	0.00000000000000	0.00000000000000	0.00000000000000	0.00000000000000	0.00000000000000	0.00000000000000	0.00000000000000	26.82859500000000	0.00000000000000	0.00000000000000	0.00000000000000	0.00000000000000	
12.73828900000000	53.18405100000000	813.34524699999997	57.12959600000000	0.35155200000000	0.00000000000000	0.11417700000000	0.00000000000000	0.00000000000000	0.00000000000000	0.00000000000000	0.00000000000000	0.00000000000000	0.00000000000000	26.89816400000000	0.00000000000000	0.00000000000000	0.00000000000000	0.00000000000000	
12.73994900000000	52.68343300000000	813.51121499999999	57.15221900000000	0.35118400000000	0.00000000000000	0.11425600000000	0.00000000000000	0.00000000000000	0.00000000000000	0.00000000000000	0.00000000000000	0.00000000000000	0.00000000000000	26.96035800000000	0.00000000000000	0.00000000000000	0.00000000000000	0.00000000000000	
